<svg style="position: absolute; width: 0; height: 0;" width="0" height="0" version="1.1" xmlns="http://www.w3.org/2000/svg" xmlns:xlink="http://www.w3.org/1999/xlink"><defs><symbol id="about" viewBox="0 -212 1024 1024"><path d="M572 -140.67 q-208 4 -350 128 q-142 124 -146 316 q4 184 144 308 q-24 60 -76 100 q-24 16 -44 32 q-8 8 -16 20 q-8 12 -4 28 l0 8 l8 4 q40 20 92 16 q52 -4 108 -24 q116 -32 176 -60 q52 12 108 12 q212 -8 352 -132 q140 -124 144 -312 q-4 -188 -144 -312 q-140 -128 -352 -132 ZM572 -100.67 q196 4 324 120 q128 116 132 284 q-4 172 -132 286 q-128 114 -324 118 q-56 0 -104 -12 l-8 -4 l-8 4 q-24 12 -72 32 q-48 16 -100 32 q-56 16 -100 20 q-28 0 -48 -8 q16 -12 40 -32 q60 -40 92 -128 l0 -12 l-8 -8 q-136 -116 -140 -288 q4 -172 132 -286 q128 -114 324 -118 ZM548 95.33 q-8 0 -8 8 l0 52 q4 8 8 8 l48 0 q8 0 8 -8 l0 -52 q0 -8 -8 -8 l-48 0 ZM552 239.33 q-8 0 -8 8 l0 268 q0 8 8 8 l44 0 q8 0 8 -8 l0 -268 q0 -8 -8 -8 l-44 0 Z"></path></symbol><symbol id="pause" viewBox="0 -212 1024 1024"><path d="M376 772 l-192 0 q-28 0 -46 -18 q-18 -18 -18 -46 l0 -768 q0 -28 18 -46 q18 -18 46 -18 l192 0 q28 0 46 18 q18 18 18 46 l0 768 q0 28 -18 46 q-18 18 -46 18 ZM940 772 l-192 0 q-28 0 -46 -18 q-18 -18 -18 -46 l0 -768 q0 -28 18 -46 q18 -18 46 -18 l192 0 q28 0 46 18 q18 18 18 46 l0 768 q0 28 -18 46 q-18 18 -46 18 Z"></path></symbol><symbol id="stop" viewBox="0 -212 1024 1024"><path d="M114 852 l896 0 q28 0 46 -18 q18 -18 18 -46 l0 -896 q0 -28 -18 -46 q-18 -18 -46 -18 l-896 0 q-28 0 -46 18 q-18 18 -18 46 l0 896 q0 28 18 46 q18 18 46 18 Z"></path></symbol><symbol id="font" viewBox="0 -212 1024 1024"><path d="M56 804 l1024 0 l0 -192 l-1024 0 l0 192 ZM860 360 q12 28 40 40 l52 20 l0 64 l-320 0 l0 -64 l104 -32 l-44 -160 l-248 0 l-44 160 l104 32 l0 64 l-320 0 l0 -64 l52 -20 q28 -12 40 -40 l180 -580 l224 0 l180 580 ZM648 100 l-64 -192 l-32 0 l-64 192 l160 0 Z"></path></symbol><symbol id="zoom" viewBox="0 -212 1024 1024"><path d="M668 184 l-128 0 l0 -128 l-128 0 l0 128 l-128 0 l0 128 l128 0 l0 128 l128 0 l0 -128 l128 0 l0 -128 ZM476 696 q120 0 224 -60 q104 -60 164 -164 q60 -104 60 -224 q0 -120 -60 -224 q-60 -104 -164 -164 q-104 -60 -224 -60 q-120 0 -224 60 q-104 60 -164 164 q-60 104 -60 224 q0 120 60 224 q60 104 164 164 q104 60 224 60 ZM476 -72 q88 0 160 44 q72 44 116 116 q44 72 44 160 q0 88 -44 160 q-44 72 -116 116 q-72 44 -160 44 q-88 0 -160 -44 q-72 -44 -116 -116 q-44 -72 -44 -160 q0 -88 44 -160 q44 -72 116 -116 q72 -44 160 -44 ZM1032 716 q20 16 20 44 q0 28 -18 46 q-18 18 -46 18 q-28 0 -44 -20 l-156 -152 q52 -40 92 -92 l152 156 Z"></path></symbol><symbol id="play" viewBox="0 -212 1024 1024"><path d="M972 304 q0 32 -28 52 l-640 448 q-12 12 -30 12 q-18 0 -34 -8 q-16 -8 -26 -24 q-10 -16 -10 -32 l0 -896 q0 -16 10 -32 q10 -16 26 -24 q16 -8 34 -8 q18 0 30 12 l640 448 q28 20 28 52 Z"></path></symbol><symbol id="cross" viewBox="0 -212 1024 1024"><path d="M984 780 q-20 20 -44 20 q-24 0 -44 -20 l-340 -340 l-340 340 q-20 20 -44 20 q-24 0 -44 -20 q-20 -20 -20 -44 q0 -24 20 -44 l340 -340 l-340 -340 q-20 -20 -20 -44 q0 -24 20 -44 q20 -20 44 -20 q24 0 44 20 l340 340 l340 -340 q20 -20 44 -20 q24 0 44 20 q20 20 20 44 q0 24 -20 44 l-340 340 l340 340 q20 20 20 44 q0 24 -20 44 Z"></path></symbol><symbol id="nav-down" viewBox="0 -212 1024 1024"><path d="M36 136 l204 -208 l308 308 l308 -308 l204 208 l-512 512 l-512 -512 Z"></path></symbol><symbol id="nav-up" viewBox="0 -212 1024 1024"><path d="M1072 444 l-204 208 l-308 -308 l-308 308 l-204 -208 l512 -512 l512 512 Z"></path></symbol><symbol id="palette" viewBox="0 -212 1024 1024"><path d="M888 593.87 q-80 40 -172 28 q-56 -4 -152 -36 q-76 -24 -108 -24 q-52 -4 -80 32 q-8 16 -8 36 q4 16 14 48 q10 32 10 52 q0 28 -16 52 q-20 28 -68 26 q-48 -2 -84 -26 q-104 -76 -164 -186 q-60 -110 -60 -238 q0 -140 70 -256 q70 -116 186 -186 q116 -70 256 -70 q116 0 218 48 q102 48 174 134 q72 86 100 194 q16 48 20 112 q0 80 -24 144 q-36 80 -112 116 ZM192 325.87 q-28 0 -46 18 q-18 18 -18 46 q0 28 18 46 q18 18 46 18 q28 0 46 -18 q18 -18 18 -46 q0 -28 -18 -46 q-18 -18 -46 -18 ZM320 69.87 q-28 0 -46 18 q-18 18 -18 46 q0 28 18 46 q18 18 46 18 q28 0 46 -18 q18 -18 18 -46 q0 -28 -18 -46 q-18 -18 -46 -18 ZM576 -58.13 q-28 0 -46 18 q-18 18 -18 46 q0 28 18 46 q18 18 46 18 q28 0 46 -18 q18 -18 18 -46 q0 -28 -18 -46 q-18 -18 -46 -18 ZM768 197.87 q-52 0 -90 38 q-38 38 -38 90 q0 52 38 90 q38 38 90 38 q52 0 90 -38 q38 -38 38 -90 q0 -52 -38 -90 q-38 -38 -90 -38 Z"></path></symbol><symbol id="reset" viewBox="0 -212 1024 1024"><path d="M512 812 q-152 0 -280 -84 q-128 -84 -188 -224 l156 -68 q40 92 126 148 q86 56 186 56 q68 0 130 -26 q62 -26 110 -74 l-164 -160 l436 -48 l0 480 l-152 -148 q-72 72 -166 110 q-94 38 -194 38 ZM512 -40 q-68 0 -130 26 q-62 26 -110 74 l164 160 l-436 48 l0 -480 l152 148 q72 -72 166 -110 q94 -38 194 -38 q152 0 280 84 q128 84 188 224 l-156 68 q-40 -92 -126 -148 q-86 -56 -186 -56 Z"></path></symbol><symbol id="plus" viewBox="0 -212 1024 1024"><path d="M688 788 l-256 0 l0 -384 l-384 0 l0 -256 l384 0 l0 -384 l256 0 l0 384 l384 0 l0 256 l-384 0 l0 384 Z"></path></symbol><symbol id="minus" viewBox="0 -212 1024 1024"><path d="M48 492 l1024 0 l0 -256 l-1024 0 l0 256 Z"></path></symbol><symbol id="settings-gear" viewBox="0 -212 1024 1024"><path d="M884 484 l68 132 l-88 92 l-136 -72 q-16 12 -68 28 l-52 152 l-128 0 l-52 -148 l-12 -4 q-36 -12 -52 -20 l-132 68 l-96 -96 l68 -132 q-8 -16 -20 -52 l-4 -12 l-148 -52 l0 -128 l148 -52 q4 -12 12 -34 q8 -22 12 -34 l-68 -136 l88 -88 l136 68 q16 -12 68 -24 l52 -148 l128 0 l52 148 q12 4 34 12 q22 8 34 12 l136 -68 l88 88 l-68 136 q12 16 24 68 l148 52 l0 128 l-148 52 l-4 12 q-12 36 -20 52 ZM544 112 q-80 0 -136 56 q-56 56 -56 136 q0 80 56 136 q56 56 136 56 q80 0 136 -56 q56 -56 56 -136 q0 -80 -56 -136 q-56 -56 -136 -56 Z"></path></symbol><symbol id="move" viewBox="0 -212 1024 1024"><path d="M868 344 l-256 0 l0 256 l128 0 l-192 192 l-192 -192 l128 0 l0 -256 l-256 0 l0 128 l-192 -192 l192 -192 l0 128 l256 0 l0 -256 l-128 0 l192 -192 l192 192 l-128 0 l0 256 l256 0 l0 -128 l192 192 l-192 192 l0 -128 Z"></path></symbol><symbol id="tts" viewBox="0 -212 1024 1024"><path d="M852 15.2 q-20 20 -20 44 q0 24 20 44 q48 52 66 116 q18 64 0 130 q-18 66 -66 114 q-20 20 -20 46 q0 26 20 46 q20 20 44 20 q24 0 44 -20 q72 -72 98 -172 q26 -100 0 -196 q-26 -96 -98 -172 q-12 -20 -40 -20 q-28 0 -48 20 ZM736 727.2 q0 24 -16 42 q-16 18 -40 22 q-24 4 -48 -12 l-364 -244 l-172 0 q-28 0 -46 -18 q-18 -18 -18 -46 l0 -380 q0 -28 18 -46 q18 -18 46 -18 l172 0 l364 -244 q36 -16 70 0 q34 16 34 52 l0 892 Z"></path></symbol><symbol id="ruler" viewBox="0 -212 1024 1024"><path d="M784 760 l-104 -108 l76 -76 l-44 -44 l-76 76 l-84 -84 l76 -76 l-44 -44 l-76 76 l-84 -84 l76 -76 l-44 -44 l-76 76 l-84 -84 l76 -76 l-44 -44 l-76 76 l-108 -104 q-8 -12 -8 -24 q0 -12 8 -24 l224 -224 q12 -8 24 -8 q12 0 24 8 l640 640 q8 12 8 24 q0 12 -8 24 l-224 224 q-12 8 -24 8 q-12 0 -24 -8 ZM888 448 q-20 0 -34 14 q-14 14 -14 34 q0 20 14 34 q14 14 34 14 q20 0 34 -14 q14 -14 14 -34 q0 -20 -14 -34 q-14 -14 -34 -14 Z"></path></symbol><symbol id="mic" viewBox="0 -212 1024 1024"><path d="M668 288 l0 -64 l128 0 l0 -96 l-128 0 l0 -64 l128 0 q0 -68 -34 -128 q-34 -60 -94 -94 q-60 -34 -128 -34 q-68 0 -128 34 q-60 34 -94 94 q-34 60 -34 128 l128 0 l0 64 l-128 0 l0 96 l128 0 l0 64 l-124 0 q12 96 84 160 q72 64 168 64 q96 0 168 -64 q72 -64 84 -160 l-124 0 ZM796 768 l-224 0 l0 -128 q96 -8 178 -62 q82 -54 128 -138 q46 -84 46 -184 q0 -12 -10 -22 q-10 -10 -22 -10 q-12 0 -22 10 q-10 10 -10 22 q0 88 -44 160 q-44 72 -116 116 q-72 44 -160 44 q-88 0 -160 -44 q-72 -44 -116 -116 q-44 -72 -44 -160 q0 -12 -10 -22 q-10 -10 -22 -10 q-12 0 -22 10 q-10 10 -10 22 q0 100 46 184 q46 84 128 138 q82 54 178 62 l0 128 l-224 0 q-12 0 -22 10 q-10 10 -10 22 q0 12 10 22 q10 10 22 10 l512 0 q12 0 22 -10 q10 -10 10 -22 q0 -12 -10 -22 q-10 -10 -22 -10 Z"></path></symbol><symbol id="help" viewBox="0 -212 1024 1024"><path d="M452 434 l125 0 l0 -17 q0 -40 15 -68 q16 -27 80 -80 q33 -27 55 -47 q22 -20 33 -34 q23 -29 34 -61 q11 -32 11 -78 q0 -48 -17 -87 q-17 -39 -50 -66.5 q-33 -27.5 -82 -42 q-49 -14.5 -112 -14.5 q-111 0 -239 67 l47 104 q119 -57 190 -57 q57 0 89 28 q32 28 32 78 q0 46 -19 78 q-9 17 -30.5 37.5 q-21.5 20.5 -55.5 47.5 q-31 25 -52 47 q-21 22 -32 44 q-22 43 -22 95 l0 26 ZM621 477 l-213 0 l0 -69 q0 -62 26 -112 q14 -26 38 -52.5 q24 -26.5 60 -55.5 q55 -44 67 -60 q12 -16 17 -32 q5 -16 5 -37 q0 -28 -19 -45.5 q-19 -17.5 -60 -17.5 q-20 0 -41.5 4.5 q-21.5 4.5 -44.5 12.5 q-23 8 -53.5 21.5 q-30.5 13.5 -70.5 32.5 l-83 -178 q164 -93 295 -93 q141 0 222 68 q42 35 62.5 80.5 q20.5 45.5 20.5 104.5 q0 76 -33 131 q-16 28 -45 58.5 q-29 30.5 -73 64.5 q-26 21 -42.5 37 q-16.5 16 -22.5 25 q-7 10 -9.5 23 q-2.5 13 -2.5 29 l0 60 ZM522 587 q-91 0 -91 86 q0 25 7 41.5 q7 16.5 19 27 q12 10.5 28.5 15 q16.5 4.5 35.5 4.5 q44 0 67 -23 q23 -23 23 -65 q0 -86 -89 -86 ZM522 804 q-63 0 -99 -33.5 q-36 -33.5 -36 -97 q0 -63.5 36 -96.5 q36 -33 98 -33 q63 0 98.5 34 q35.5 34 35.5 95 q0 30 -9 54 q-9 24 -26 41 q-17 17 -42 26.5 q-25 9.5 -56 9.5 Z"></path></symbol></defs></svg>