<?xml version="1.0" encoding="utf-8"?>
<!-- Generator: Adobe Illustrator 22.0.0, SVG Export Plug-In . SVG Version: 6.00 Build 0)  -->
<svg version="1.1" id="Layer_1" xmlns="http://www.w3.org/2000/svg" xmlns:xlink="http://www.w3.org/1999/xlink" x="0px" y="0px"
	 viewBox="0 0 32 32" style="enable-background:new 0 0 32 32;" xml:space="preserve">
<g>
	<path d="M16,26.5c-5.8,0-10.5-4.7-10.5-10.5S10.2,5.5,16,5.5S26.5,10.2,26.5,16S21.8,26.5,16,26.5z M16,7.5c-4.7,0-8.5,3.8-8.5,8.5
		s3.8,8.5,8.5,8.5s8.5-3.8,8.5-8.5S20.7,7.5,16,7.5z"/>
</g>
<g>
	<path d="M20,21h-8c-0.6,0-1-0.4-1-1v-8c0-0.6,0.4-1,1-1h8c0.6,0,1,0.4,1,1v8C21,20.6,20.6,21,20,21z M13,19h6v-6h-6V19z"/>
</g>
</svg>
